<svg width="128" height="128" viewBox="0 0 128 128" fill="none" xmlns="http://www.w3.org/2000/svg">
<rect width="128" height="128" rx="11" fill="#1A8FE3"/>
<g filter="url(#filter0_i_174_37)">
<path fill-rule="evenodd" clip-rule="evenodd" d="M50.1155 76.2471C46.9698 75.7943 44.174 75.1123 41.728 74.201C36.9613 72.3897 33.4817 69.5297 31.289 65.621C29.0963 61.7123 28 56.6597 28 50.463C28 44.171 29.0963 39.1183 31.289 35.305C33.4817 31.3963 36.9613 28.5363 41.728 26.725C46.59 24.8183 52.8343 23.865 60.461 23.865C66.1598 23.865 71.048 24.3463 75.1256 25.3089L87.202 16L99.214 27.583L91.0988 37.8623C92.5049 41.3302 93.208 45.5304 93.208 50.463C93.208 56.755 92.1117 61.8553 89.919 65.764C87.7263 69.5773 84.199 72.3897 79.337 74.201C76.0266 75.459 71.9805 76.2801 67.1986 76.6644L66.753 81.923C72.187 82.6857 76.6677 83.5437 80.195 84.497C83.7223 85.355 86.487 86.499 88.489 87.929C90.491 89.359 91.921 91.1703 92.779 93.363C93.637 95.4603 94.066 98.0343 94.066 101.085C94.066 105.164 93.2944 108.639 91.7512 111.51H30.3551L32.433 99.798C36.8183 101.037 41.0607 101.943 45.16 102.515C49.2593 103.182 53.311 103.516 57.315 103.516C59.9843 103.516 62.463 103.421 64.751 103.23C67.039 103.039 69.2793 102.849 71.472 102.658V96.08C62.32 95.4127 55.7897 94.5547 51.881 93.506C47.9723 92.4573 46.018 91.075 46.018 89.359L50.1155 76.2471ZM63.035 63.619H52.024V42.884C52.024 40.6913 52.453 39.2137 53.311 38.451C54.169 37.593 55.742 37.164 58.03 37.164H69.184V58.042C69.184 60.044 68.7073 61.474 67.754 62.332C66.896 63.19 65.323 63.619 63.035 63.619Z" fill="white"/>
</g>
<defs>
<filter id="filter0_i_174_37" x="28" y="16" width="71.214" height="99.51" filterUnits="userSpaceOnUse" color-interpolation-filters="sRGB">
<feFlood flood-opacity="0" result="BackgroundImageFix"/>
<feBlend mode="normal" in="SourceGraphic" in2="BackgroundImageFix" result="shape"/>
<feColorMatrix in="SourceAlpha" type="matrix" values="0 0 0 0 0 0 0 0 0 0 0 0 0 0 0 0 0 0 127 0" result="hardAlpha"/>
<feOffset dy="4"/>
<feGaussianBlur stdDeviation="2"/>
<feComposite in2="hardAlpha" operator="arithmetic" k2="-1" k3="1"/>
<feColorMatrix type="matrix" values="0 0 0 0 0 0 0 0 0 0 0 0 0 0 0 0 0 0 0.25 0"/>
<feBlend mode="normal" in2="shape" result="effect1_innerShadow_174_37"/>
</filter>
</defs>
</svg>
